<?xml version="1.0" standalone="no"?>
<!DOCTYPE svg PUBLIC "-//W3C//DTD SVG 20010904//EN"
 "http://www.w3.org/TR/2001/REC-SVG-20010904/DTD/svg10.dtd">
<svg version="1.0" xmlns="http://www.w3.org/2000/svg"
 width="753.000000pt" height="696.000000pt" viewBox="0 0 753.000000 696.000000"
 preserveAspectRatio="xMidYMid meet">

<g transform="translate(0.000000,696.000000) scale(0.100000,-0.100000)"
fill="#000000" stroke="none">
<path d="M3435 6904 c-889 -72 -1652 -423 -2257 -1040 -181 -185 -292 -322
-431 -534 -285 -435 -461 -920 -534 -1465 -24 -182 -24 -638 0 -819 76 -564
251 -1038 552 -1491 803 -1211 2260 -1788 3693 -1464 164 37 442 128 607 199
1041 446 1791 1379 2010 2500 49 251 59 366 59 665 0 299 -10 414 -59 665
-283 1450 -1476 2563 -2958 2760 -147 20 -555 34 -682 24z m332 -558 c63 -69
36 -177 -52 -206 -102 -34 -198 85 -147 180 42 78 140 91 199 26z m-435 -193
c10 -9 18 -30 18 -47 0 -33 -24 -76 -41 -76 -6 0 -3 7 6 16 21 21 13 29 -13
13 -11 -7 -18 -19 -15 -26 3 -8 -3 -13 -16 -13 -12 0 -21 5 -21 11 0 14 -42 1
-57 -18 -7 -10 -22 -14 -37 -11 -16 3 -23 1 -19 -5 4 -6 -4 -8 -20 -5 -15 3
-24 1 -21 -3 4 -7 -51 -26 -91 -33 -5 -1 -14 -4 -20 -7 -5 -4 -23 -9 -40 -13
l-30 -8 23 21 c13 11 31 17 40 14 13 -4 14 -3 4 5 -11 7 -11 10 3 15 10 4 14
3 9 -4 -4 -7 1 -10 12 -7 26 5 13 23 -18 23 -14 1 -24 -3 -22 -7 3 -4 -1 -8
-9 -8 -8 0 -21 -7 -28 -16 -11 -13 -25 -15 -71 -10 -56 7 -58 6 -58 -17 0 -21
-4 -24 -26 -19 -19 3 -25 1 -20 -7 7 -11 -10 -16 -52 -12 -13 1 -29 -2 -35 -8
-7 -5 -30 -6 -57 -1 -26 5 -49 5 -54 -1 -6 -6 -5 -9 3 -9 11 0 11 -3 1 -15
-10 -12 -10 -15 1 -16 10 0 11 -2 2 -6 -7 -2 -20 3 -29 12 -14 14 -19 14 -38
2 -12 -8 -37 -18 -56 -22 -39 -9 -103 -53 -95 -65 9 -14 -16 -23 -28 -11 -9 9
-7 11 8 6 16 -5 17 -5 5 3 -10 8 -19 7 -29 -1 -12 -9 -13 -9 -7 1 4 6 3 12 -3
12 -5 0 -13 -4 -16 -10 -3 -5 -12 -10 -18 -10 -7 0 -1 9 13 20 14 11 30 18 37
15 7 -2 15 1 19 7 5 7 2 8 -6 3 -9 -5 -11 -4 -6 3 11 18 26 14 26 -5 0 -9 3
-13 7 -9 4 4 8 13 8 19 0 7 5 14 10 16 6 2 15 11 21 19 7 9 18 13 28 9 10 -4
14 -3 11 3 -12 20 224 131 435 205 140 48 354 103 409 104 28 1 51 -5 63 -16z
m948 -27 c162 -48 265 -80 335 -106 99 -36 275 -122 269 -132 -3 -5 -2 -7 3
-6 17 4 53 -14 47 -24 -4 -7 -2 -8 5 -4 6 4 28 -3 49 -15 113 -69 265 -173
323 -220 89 -73 180 -157 149 -137 -14 9 -45 34 -69 57 -24 22 -49 38 -55 34
-6 -3 -8 -3 -4 2 9 10 -71 77 -83 69 -5 -3 -8 -1 -7 4 3 9 -154 122 -168 122
-3 0 -17 9 -31 20 -14 11 -30 17 -35 14 -5 -3 -16 2 -23 12 -13 17 -14 17 -15
2 0 -25 -18 -32 -36 -14 -8 9 -20 16 -25 16 -5 0 -9 6 -9 13 0 9 -12 11 -40 9
-25 -3 -40 0 -40 7 0 6 5 11 10 11 6 0 10 5 10 11 0 6 -9 9 -20 6 -13 -3 -20
0 -20 9 0 16 -5 17 -49 8 -17 -4 -31 -10 -31 -14 0 -5 8 -6 19 -3 12 3 20 -2
23 -15 6 -23 -20 -34 -62 -26 -24 4 -24 4 -2 -5 12 -6 22 -13 22 -16 0 -9 -75
25 -78 36 -2 5 -9 6 -15 2 -8 -5 -8 -2 0 8 10 13 9 19 -10 35 -23 19 -61 29
-51 13 3 -5 0 -9 -5 -9 -6 0 -11 4 -11 10 0 5 -6 7 -14 4 -7 -3 -20 1 -27 9
-13 12 -68 31 -78 27 -2 -1 -8 4 -12 12 -7 10 -9 10 -9 -3 0 -10 15 -21 40
-29 22 -7 38 -15 35 -18 -2 -2 -43 8 -91 22 -47 15 -147 42 -222 61 -74 19
-142 41 -151 49 -24 25 -19 85 10 108 32 26 93 20 249 -26z m-1047 -113 c-7
-2 -19 -2 -25 0 -7 3 -2 5 12 5 14 0 19 -2 13 -5z m-323 -85 c0 -4 -2 -8 -5
-8 -2 0 -34 -11 -70 -25 -36 -13 -65 -21 -65 -17 0 4 25 16 55 26 30 11 53 22
50 25 -2 4 5 7 16 7 10 0 19 -4 19 -8z m1630 -33 c14 -8 21 -14 15 -14 -5 0
-21 6 -35 14 -14 8 -20 14 -15 14 6 0 21 -6 35 -14z m-934 -31 c113 -60 175
-152 181 -274 9 -148 -50 -260 -205 -392 -176 -148 -216 -207 -216 -318 0 -78
24 -137 80 -200 146 -162 424 -121 521 78 28 57 28 57 31 296 1 132 5 242 8
245 11 11 122 -117 148 -171 52 -106 68 -246 41 -353 -49 -193 -194 -341 -380
-391 -59 -16 -211 -18 -275 -3 -174 40 -328 192 -375 370 -19 71 -19 190 0
264 25 95 63 153 181 275 61 63 129 139 152 167 49 63 82 147 82 208 0 50 -31
141 -60 178 -11 14 -20 30 -20 36 0 20 56 12 106 -15z m998 7 c4 -5 -3 -7 -14
-4 -23 6 -26 13 -6 13 8 0 17 -4 20 -9z m-1864 -11 c-8 -5 -19 -10 -25 -10 -5
0 -3 5 5 10 8 5 20 10 25 10 6 0 3 -5 -5 -10z m-54 -25 c-20 -15 -36 -19 -36
-10 0 5 38 23 50 24 3 0 -4 -6 -14 -14z m2121 9 c-3 -3 -12 -4 -19 -1 -8 3 -5
6 6 6 11 1 17 -2 13 -5z m-2252 -26 c7 -8 5 -9 -7 -5 -9 3 -18 1 -20 -4 -2 -6
-15 -1 -28 11 l-25 21 35 -5 c19 -4 39 -11 45 -18z m83 -3 c-2 -1 -13 -8 -25
-14 -18 -9 -23 -9 -23 1 0 7 12 14 26 14 14 1 24 1 22 -1z m-208 -21 c0 -2 -9
-4 -21 -4 -11 0 -18 4 -14 10 5 8 35 3 35 -6z m123 -19 c-10 -7 -21 -11 -25
-9 -16 10 -7 19 18 20 23 2 24 1 7 -11z m-329 -39 c-10 -8 -21 -12 -24 -9 -3
2 4 11 14 19 11 7 22 12 25 9 2 -3 -4 -12 -15 -19z m-37 -33 c0 -16 -1 -20 -4
-10 -2 9 -9 15 -14 11 -5 -3 -7 -9 -4 -14 3 -5 -4 -8 -16 -7 -19 1 -19 3 8 24
15 13 28 23 28 23 0 0 1 -12 2 -27z m-77 -44 c-7 -11 -14 -18 -17 -16 -8 9
-42 -26 -36 -36 3 -6 1 -7 -6 -3 -6 4 -20 2 -29 -5 -9 -6 1 4 23 24 22 19 43
33 46 31 4 -2 9 3 13 11 3 8 8 15 11 15 3 0 1 -9 -5 -21z m244 -1 c-3 -4 -14
-13 -25 -19 -18 -9 -19 -8 -8 9 6 10 18 19 25 19 7 0 11 -4 8 -9z m2807 -105
c13 -16 12 -17 -3 -4 -10 7 -18 15 -18 17 0 8 8 3 21 -13z m-3616 -165 c34
-223 195 -463 415 -620 180 -128 494 -282 1090 -533 170 -72 232 -106 298
-169 92 -87 112 -131 206 -461 47 -165 92 -330 102 -367 15 -62 34 -91 34 -52
0 18 140 532 170 624 40 120 80 192 144 255 69 68 137 107 342 193 632 266
914 406 1084 537 75 58 207 197 255 270 50 76 102 194 115 265 6 30 13 65 16
78 14 65 95 -30 135 -158 76 -245 56 -500 -53 -685 -54 -90 -170 -206 -281
-278 -221 -146 -508 -224 -1117 -307 -85 -11 -170 -25 -187 -31 -43 -14 -63
-44 -63 -93 0 -23 58 -217 144 -480 351 -1072 450 -1377 477 -1466 17 -52 52
-162 79 -244 28 -82 50 -153 50 -157 0 -5 -125 -9 -279 -9 -257 0 -279 1 -284
18 -2 9 -50 168 -105 352 -55 184 -128 430 -162 545 -138 472 -133 455 -145
443 -3 -3 -45 -153 -95 -334 -49 -181 -114 -421 -144 -532 -31 -112 -56 -206
-56 -208 0 -3 -23 -4 -51 -2 l-52 3 -44 160 c-24 88 -63 232 -88 320 -24 88
-69 257 -100 375 -32 118 -59 217 -61 219 -11 12 -27 -27 -68 -169 -45 -157
-125 -434 -197 -680 -21 -74 -63 -218 -92 -320 l-54 -185 -288 -3 c-228 -2
-286 0 -283 10 31 86 475 1434 563 1708 64 201 134 418 156 483 21 65 39 127
39 138 0 32 -27 87 -48 98 -20 10 -127 28 -352 56 -154 20 -298 47 -455 86
-316 78 -521 178 -664 321 -77 77 -112 126 -156 221 -55 115 -69 185 -69 327
1 181 46 350 120 447 34 45 51 42 59 -9z m-318 -800 c32 -30 30 -78 -8 -180
-46 -123 -84 -242 -108 -338 -24 -99 -61 -309 -61 -350 0 -75 -90 -111 -137
-56 -22 26 -23 34 -18 100 23 274 169 782 238 831 30 21 67 19 94 -7z m418
-536 c115 -139 261 -208 628 -293 153 -36 474 -96 541 -101 14 -1 26 -5 26 -8
0 -3 -23 -76 -52 -162 l-53 -158 -42 0 c-107 0 -457 23 -543 35 -259 38 -447
158 -558 355 -10 19 -29 51 -41 70 -67 109 -84 346 -28 382 12 8 37 -17 122
-120z m4206 112 c21 -25 24 -170 5 -244 -19 -72 -75 -182 -109 -212 -12 -11
-16 -17 -9 -13 20 10 14 -3 -28 -61 -85 -114 -237 -205 -420 -248 -79 -19
-164 -30 -340 -41 -129 -8 -255 -15 -280 -15 l-45 0 -52 151 c-28 83 -49 157
-47 163 3 7 53 20 117 30 381 59 745 159 926 255 46 24 148 121 214 204 42 51
48 55 68 31z m-3961 -176 c10 -6 7 -7 -10 -2 -14 3 -32 11 -40 16 -10 6 -7 7
10 2 14 -3 32 -11 40 -16z m61 -24 c23 -10 26 -13 9 -9 -14 4 -31 7 -37 7 -7
1 -13 5 -13 10 0 11 2 10 41 -8z m79 -24 c18 -12 2 -12 -25 0 -13 6 -15 9 -5
9 8 0 22 -4 30 -9z m70 -20 c11 -8 7 -9 -15 -4 -37 8 -45 14 -19 14 10 0 26
-5 34 -10z m-1235 -486 c92 -43 98 -187 10 -228 -95 -45 -185 11 -185 116 0
44 33 96 73 113 42 19 62 18 102 -1z m5731 0 c21 -10 40 -31 54 -58 31 -65 25
-109 -24 -157 -76 -76 -206 -18 -206 92 0 55 30 105 73 124 42 19 62 18 103
-1z m-4439 -291 c100 -78 171 -102 366 -124 66 -7 107 -16 106 -23 0 -6 -17
-60 -37 -121 l-37 -110 -38 -3 c-50 -4 -176 31 -263 74 -79 39 -159 111 -211
191 -39 62 -50 102 -33 133 10 20 18 22 60 18 34 -3 60 -14 87 -35z m3191 25
c18 -18 15 -42 -15 -105 -62 -131 -210 -239 -390 -284 -128 -32 -128 -31 -167
83 -19 54 -36 108 -40 122 -7 29 -13 27 169 46 121 12 202 43 300 114 53 38
118 49 143 24z m-1604 -2439 c29 -23 53 -65 51 -89 -7 -60 -6 -57 -14 -35 -7
16 -9 14 -14 -13 -6 -28 -10 -32 -35 -30 -15 1 -33 -2 -40 -6 -7 -4 -26 -3
-42 4 -16 6 -37 10 -47 8 -15 -3 -14 -6 10 -22 15 -10 42 -22 60 -26 32 -8 32
-8 4 -9 -74 -3 -125 65 -107 142 19 85 111 126 174 76z m16 -184 c-13 -14 -27
-25 -32 -25 -5 0 4 13 19 28 34 35 46 32 13 -3z"/>
<path d="M2567 5933 c-8 -13 36 -33 71 -33 l27 1 -24 13 c-14 8 -31 11 -39 8
-8 -2 -18 1 -22 8 -4 7 -10 8 -13 3z"/>
<path d="M2366 5818 c3 -5 10 -6 15 -3 13 9 11 12 -6 12 -8 0 -12 -4 -9 -9z"/>
<path d="M4295 5980 c66 -24 93 -24 35 0 -25 10 -54 19 -65 19 -11 0 3 -9 30
-19z"/>
<path d="M4385 5950 c3 -5 8 -10 11 -10 2 0 4 5 4 10 0 6 -5 10 -11 10 -5 0
-7 -4 -4 -10z"/>
</g>
</svg>
